<svg viewBox="0 0 329.9 127.7" width="329.9" height="127.7" color-interpolation-filters="sRGB" style="margin: auto;" xmlns="http://www.w3.org/2000/svg" xmlns:xlink="http://www.w3.org/1999/xlink">
  <g transform="matrix(1.229208, 0, 0, 1.229208, -0.000126, 0.914526)">
    <svg filter="url(#colors3422898791)" x="0" y="0" width="102.00000000000003" height="102.08166533226584" class="image-svg-svg primary" style="overflow: visible;">
      <svg xmlns="http://www.w3.org/2000/svg" viewBox="0.00009032298839883879 -0.000018247394109494053 99.91987609863281 100.00006866455078">
        <defs>
          <linearGradient id="gradiantSix" x1="-1.29" y1="50" x2="50.44" y2="50" gradientUnits="userSpaceOnUse">
            <stop offset="0" stop-color="#1c085d" stop-opacity="0"/>
            <stop offset="1" stop-color="#1c085d"/>
          </linearGradient>
          <linearGradient id="gradiantOne" x1="91.92" y1="10.91" x2="53.6" y2="10.91" xlink:href="#gradiantSix"/>
          <linearGradient id="gradiantTwo" x1="7.8" y1="15.87" x2="99.88" y2="15.87" xlink:href="#gradiantSix"/>
          <linearGradient id="gradiantThree" x1="91.92" y1="89.09" x2="53.6" y2="89.09" xlink:href="#gradiantSix"/>
          <linearGradient id="gradiantFour" x1="8.43" y1="84.21" x2="99.49" y2="84.21" xlink:href="#gradiantSix"/>
          <linearGradient id="gradiantFive" x1="102.55" y1="50.09" x2="-.17" y2="50.09" xlink:href="#gradiantSix"/>
        </defs>
        <path d="M48.18 50c0-4.1-4.55-8.26-12.49-11.42-8.58-3.42-20-5.3-32.23-5.3h-.59a50.14 50.14 0 0 0 0 33.44h.59c12.21 0 23.65-1.88 32.23-5.3C43.63 58.26 48.18 54.1 48.18 50z" fill="url(#gradiantSix)"/>
        <path d="M67.76 16.38A81.32 81.32 0 0 0 91 21.33 50 50 0 0 0 57.05.49 7.23 7.23 0 0 0 55.28 5c0 4.06 4.55 8.22 12.48 11.38z" fill="url(#gradiantOne)"/>
        <path d="M37.13 20.69a111.47 111.47 0 0 1 12 4.13c3 1.17 6.16 2.39 9.29 3.34C71.76 32.22 85 32.81 95.86 30a51 51 0 0 0-2.47-4.9c-10.16-.56-19.56-2.43-27-5.38C56.89 16 51.64 10.71 51.64 5A9.89 9.89 0 0 1 53 .09C52 0 51 0 50 0a49.93 49.93 0 0 0-39.91 19.87c1.51-.25 3-.46 4.6-.63a62.46 62.46 0 0 1 22.44 1.45z" fill="url(#gradiantTwo)"/>
        <path d="M55.28 95a7.25 7.25 0 0 0 1.77 4.47A50 50 0 0 0 91 78.67a81.32 81.32 0 0 0-23.21 5C59.83 86.78 55.28 90.94 55.28 95z" fill="url(#gradiantThree)"/>
        <path d="M63.78 70.16a110 110 0 0 0-11.63 4c-3.09 1.2-6.29 2.44-9.55 3.43a84.22 84.22 0 0 1-24.27 3.75h-1.41q-3.21-.06-6.22-.41A49.88 49.88 0 0 0 50 100c1 0 2 0 3-.09A9.92 9.92 0 0 1 51.64 95c0-5.75 5.25-11 14.78-14.8 7.41-3 16.81-4.82 27-5.38.77-1.33 1.47-2.71 2.12-4.12a72.14 72.14 0 0 0-10.58-1.93 59 59 0 0 0-21.18 1.39z" fill="url(#gradiantFour)"/>
        <path d="M97.21 33.49a59.86 59.86 0 0 1-14.13 1.88h-1.41a84.22 84.22 0 0 1-24.27-3.73c-3.26-1-6.46-2.23-9.55-3.43a110 110 0 0 0-11.63-4 59 59 0 0 0-21.15-1.35 71.78 71.78 0 0 0-7.87 1.28 49.49 49.49 0 0 0-2.88 5.5c12.34.09 23.93 2.05 32.72 5.56 9.53 3.79 14.78 9 14.78 14.8S46.57 61 37 64.8c-8.79 3.51-20.38 5.47-32.72 5.56a50.06 50.06 0 0 0 3.45 6.42c10.11 1.81 21.92 1 33.77-2.67 3.13-1 6.26-2.17 9.29-3.34a111.47 111.47 0 0 1 12-4.13 62.46 62.46 0 0 1 22.44-1.45 74.71 74.71 0 0 1 11.6 2.16 50.25 50.25 0 0 0 .3-33.86z" fill="url(#gradiantFive)"/>
      </svg>
    </svg>
    <defs>
      <filter id="colors3422898791">
        <feColorMatrix type="matrix" values="0 0 0 0 0.99609375  0 0 0 0 0.99609375  0 0 0 0 0.99609375  0 0 0 1 0"/>
      </filter>
    </defs>
  </g>
  <g fill="#fff" class="icon-text-wrapper icon-svg-group iconsvg" transform="matrix(1.229208, 0, 0, 1.229208, 1.229082, 0)">
    <g transform="translate(109,0)">
      <g class="tp-name iconsvg-namesvg">
        <g transform="scale(1)">
          <g>
            <path d="M19.5 0.65L19.5 0.65Q14.95 0.65 11.31-0.49 7.67-1.63 4.36-4.49L4.36-4.49Q3.51-5.2 3.06-6.11 2.6-7.02 2.6-7.93L2.6-7.93Q2.6-9.43 3.67-10.56 4.75-11.7 6.37-11.7L6.37-11.7Q7.61-11.7 8.58-10.92L8.58-10.92Q11.05-8.91 13.49-7.87 15.93-6.83 19.5-6.83L19.5-6.83Q21.91-6.83 23.92-7.57 25.94-8.32 27.17-9.59 28.41-10.86 28.41-12.48L28.41-12.48Q28.41-14.43 27.23-15.79 26.07-17.16 23.66-18.1 21.25-19.05 17.55-19.57L17.55-19.57Q14.04-20.09 11.38-21.16 8.71-22.23 6.92-23.89 5.13-25.55 4.23-27.79 3.31-30.03 3.31-32.83L3.31-32.83Q3.31-37.05 5.49-40.04 7.67-43.03 11.38-44.59 15.08-46.15 19.57-46.15L19.57-46.15Q23.79-46.15 27.4-44.88 31.01-43.62 33.28-41.66L33.28-41.66Q35.16-40.17 35.16-38.22L35.16-38.22Q35.16-36.79 34.06-35.62 32.95-34.45 31.46-34.45L31.46-34.45Q30.48-34.45 29.71-35.04L29.71-35.04Q28.67-35.95 26.91-36.76 25.16-37.57 23.21-38.12 21.25-38.68 19.57-38.68L19.57-38.68Q16.77-38.68 14.85-37.96 12.94-37.25 11.96-36.01 10.99-34.77 10.99-33.15L10.99-33.15Q10.99-31.2 12.12-29.93 13.26-28.67 15.41-27.92 17.55-27.17 20.54-26.59L20.54-26.59Q24.44-25.87 27.4-24.89 30.36-23.92 32.3-22.39 34.26-20.87 35.23-18.56 36.2-16.25 36.2-12.94L36.2-12.94Q36.2-8.71 33.87-5.66 31.53-2.6 27.72-0.98 23.92 0.65 19.5 0.65ZM47.64-45.5L64.03-45.5Q70.27-45.5 73.32-42.58 76.38-39.65 76.38-33.93L76.38-33.93Q76.38-30.88 74.88-28.57 73.38-26.26 70.46-24.99 67.53-23.73 63.25-23.73L63.25-23.73 63.5-26.65Q65.52-26.65 68.12-26.1 70.72-25.55 73.16-24.15 75.59-22.75 77.19-20.25 78.78-17.75 78.78-13.85L78.78-13.85Q78.78-9.55 77.38-6.83 75.98-4.09 73.71-2.6 71.44-1.1 68.84-0.55 66.23 0 63.83 0L63.83 0 47.64 0Q45.95 0 44.82-1.14 43.68-2.27 43.68-3.97L43.68-3.97 43.68-41.54Q43.68-43.23 44.82-44.36 45.95-45.5 47.64-45.5L47.64-45.5ZM62.86-37.83L62.86-37.83 51.28-37.83 52.13-38.87 52.13-27.11 51.35-27.69 63.05-27.69Q64.94-27.69 66.43-28.93 67.92-30.16 67.92-32.5L67.92-32.5Q67.92-35.3 66.53-36.56 65.13-37.83 62.86-37.83ZM63.38-20.02L63.38-20.02 51.55-20.02 52.13-20.54 52.13-6.83 51.48-7.48 63.83-7.48Q66.82-7.48 68.58-9.07 70.33-10.66 70.33-13.85L70.33-13.85Q70.33-16.77 69.16-18.07 67.99-19.37 66.37-19.7 64.74-20.02 63.38-20.02ZM118.1-43.29L118.1-43.29Q119.79-42.45 120.09-40.63 120.38-38.8 119.14-37.31L119.14-37.31Q118.3-36.14 116.97-36.01 115.63-35.88 114.27-36.53L114.27-36.53Q112.71-37.25 110.99-37.63 109.27-38.02 107.38-38.02L107.38-38.02Q103.87-38.02 101.11-36.92 98.34-35.81 96.39-33.77 94.44-31.72 93.44-28.93 92.43-26.13 92.43-22.75L92.43-22.75Q92.43-18.79 93.57-15.86 94.7-12.94 96.72-10.99 98.73-9.04 101.47-8.09 104.19-7.15 107.38-7.15L107.38-7.15Q109.13-7.15 110.89-7.48 112.64-7.8 114.27-8.64L114.27-8.64Q115.63-9.29 116.97-9.1 118.3-8.91 119.21-7.74L119.21-7.74Q120.51-6.11 120.15-4.39 119.79-2.67 118.17-1.89L118.17-1.89Q116.48-1.04 114.69-0.49 112.91 0.07 111.08 0.36 109.27 0.65 107.38 0.65L107.38 0.65Q102.7 0.65 98.51-0.84 94.31-2.34 91.03-5.27 87.75-8.19 85.86-12.58 83.98-16.96 83.98-22.75L83.98-22.75Q83.98-27.76 85.7-31.98 87.42-36.2 90.58-39.29 93.73-42.38 98.02-44.1 102.31-45.83 107.38-45.83L107.38-45.83Q110.24-45.83 112.97-45.18 115.7-44.52 118.1-43.29ZM158.86-43.29L158.86-43.29Q160.55-42.45 160.84-40.63 161.13-38.8 159.9-37.31L159.9-37.31Q159.06-36.14 157.72-36.01 156.39-35.88 155.02-36.53L155.02-36.53Q153.47-37.25 151.74-37.63 150.02-38.02 148.13-38.02L148.13-38.02Q144.63-38.02 141.86-36.92 139.1-35.81 137.15-33.77 135.2-31.72 134.19-28.93 133.19-26.13 133.19-22.75L133.19-22.75Q133.19-18.79 134.32-15.86 135.46-12.94 137.47-10.99 139.49-9.04 142.22-8.09 144.95-7.15 148.13-7.15L148.13-7.15Q149.89-7.15 151.64-7.48 153.4-7.8 155.02-8.64L155.02-8.64Q156.39-9.29 157.72-9.1 159.06-8.91 159.96-7.74L159.96-7.74Q161.26-6.11 160.91-4.39 160.55-2.67 158.92-1.89L158.92-1.89Q157.23-1.04 155.45-0.49 153.66 0.07 151.84 0.36 150.02 0.65 148.13 0.65L148.13 0.65Q143.45 0.65 139.26-0.84 135.07-2.34 131.79-5.27 128.5-8.19 126.62-12.58 124.73-16.96 124.73-22.75L124.73-22.75Q124.73-27.76 126.46-31.98 128.18-36.2 131.33-39.29 134.48-42.38 138.77-44.1 143.06-45.83 148.13-45.83L148.13-45.83Q151-45.83 153.72-45.18 156.45-44.52 158.86-43.29Z" transform="translate(-2.5999999046325684, 46.150001525878906)"/>
          </g>
          <g fill="#fff" transform="translate(0,49.80000305175781)">
            <g transform="scale(1.01223)">
              <path d="M16.6-8.11L33.2-8.11Q34.97-8.11 36.15-6.93 37.33-5.75 37.33-3.98L37.33-3.98Q37.33-2.29 36.15-1.14 34.97 0 33.2 0L33.2 0 8.11 0Q6.2 0 5.09-1.18 3.98-2.36 3.98-4.21L3.98-4.21Q3.98-6.05 5.31-7.45L5.31-7.45 21.39-24.64Q24.05-27.52 25.67-30.5 27.3-33.49 27.3-36.07L27.3-36.07Q27.3-38.36 26.19-40.21 25.08-42.05 23.31-43.16 21.54-44.26 19.48-44.26L19.48-44.26Q17.34-44.26 15.12-42.83 12.91-41.39 11.21-39.03L11.21-39.03Q10.33-37.85 9.44-37.55 8.56-37.26 7.82-37.26L7.82-37.26Q6.2-37.26 4.83-38.47 3.47-39.69 3.47-41.31L3.47-41.31Q3.47-42.57 4.32-43.75 5.16-44.93 6.42-46.18L6.42-46.18Q9.22-48.99 12.91-50.68 16.6-52.38 19.99-52.38L19.99-52.38Q25.01-52.38 28.62-50.31 32.24-48.25 34.23-44.63 36.22-41.02 36.22-36.44L36.22-36.44Q36.22-33.35 35.08-30.14 33.94-26.93 31.94-23.9 29.95-20.88 27.37-18.07L27.37-18.07 17.41-7.45 16.6-8.11ZM62.19 0.74L62.19 0.74Q55.85 0.74 51.46-2.62 47.07-5.98 44.78-11.99 42.49-18 42.49-25.82L42.49-25.82Q42.49-33.71 44.78-39.69 47.07-45.67 51.46-49.02 55.85-52.38 62.19-52.38L62.19-52.38Q68.53-52.38 72.92-49.02 77.31-45.67 79.6-39.69 81.89-33.71 81.89-25.82L81.89-25.82Q81.89-18 79.6-11.99 77.31-5.98 72.92-2.62 68.53 0.74 62.19 0.74ZM62.19-8.11L62.19-8.11Q65.29-8.11 67.54-10.07 69.79-12.02 71.04-15.97 72.3-19.92 72.3-25.82L72.3-25.82Q72.3-31.8 71.04-35.71 69.79-39.62 67.54-41.57 65.29-43.53 62.19-43.53L62.19-43.53Q59.17-43.53 56.88-41.57 54.59-39.62 53.34-35.71 52.08-31.8 52.08-25.82L52.08-25.82Q52.08-19.92 53.34-15.97 54.59-12.02 56.88-10.07 59.17-8.11 62.19-8.11ZM101.44-8.11L118.04-8.11Q119.81-8.11 120.99-6.93 122.17-5.75 122.17-3.98L122.17-3.98Q122.17-2.29 120.99-1.14 119.81 0 118.04 0L118.04 0 92.95 0Q91.04 0 89.93-1.18 88.82-2.36 88.82-4.21L88.82-4.21Q88.82-6.05 90.15-7.45L90.15-7.45 106.23-24.64Q108.89-27.52 110.51-30.5 112.13-33.49 112.13-36.07L112.13-36.07Q112.13-38.36 111.03-40.21 109.92-42.05 108.15-43.16 106.38-44.26 104.31-44.26L104.31-44.26Q102.18-44.26 99.96-42.83 97.75-41.39 96.05-39.03L96.05-39.03Q95.17-37.85 94.28-37.55 93.4-37.26 92.66-37.26L92.66-37.26Q91.04-37.26 89.67-38.47 88.31-39.69 88.31-41.31L88.31-41.31Q88.31-42.57 89.15-43.75 90-44.93 91.26-46.18L91.26-46.18Q94.06-48.99 97.75-50.68 101.44-52.38 104.83-52.38L104.83-52.38Q109.85-52.38 113.46-50.31 117.08-48.25 119.07-44.63 121.06-41.02 121.06-36.44L121.06-36.44Q121.06-33.35 119.92-30.14 118.77-26.93 116.78-23.9 114.79-20.88 112.21-18.07L112.21-18.07 102.25-7.45 101.44-8.11ZM131.91-10.4L131.91-10.4Q132.57-10.4 133.34-10.18 134.12-9.96 135.08-9.3L135.08-9.3Q136.33-8.34 138.07-7.6 139.8-6.86 142.09-6.86L142.09-6.86Q144.37-6.86 146.4-8 148.43-9.15 149.76-11.25 151.09-13.35 151.09-16.3L151.09-16.3Q151.09-19.11 149.94-20.95 148.8-22.8 146.92-23.75 145.04-24.71 142.9-24.71L142.9-24.71Q141.27-24.71 140.2-24.42 139.14-24.12 138.14-23.79 137.14-23.46 135.82-23.46L135.82-23.46Q134.12-23.46 133.2-24.64 132.27-25.82 132.27-27.44L132.27-27.44Q132.27-28.48 132.68-29.29 133.09-30.1 133.9-31.06L133.9-31.06 146.88-45.22 148.87-43.53 130.73-43.53Q128.95-43.53 127.77-44.71 126.59-45.89 126.59-47.66L126.59-47.66Q126.59-49.35 127.77-50.5 128.95-51.64 130.73-51.64L130.73-51.64 153.3-51.64Q155.59-51.64 156.73-50.39 157.87-49.13 157.87-47.21L157.87-47.21Q157.87-46.26 157.39-45.37 156.91-44.48 156.1-43.67L156.1-43.67 143.05-29.29 141.05-31.8Q141.86-32.16 143.3-32.46 144.74-32.76 145.7-32.76L145.7-32.76Q150.05-32.76 153.26-30.5 156.47-28.25 158.21-24.68 159.94-21.1 159.94-16.97L159.94-16.97Q159.94-11.51 157.5-7.52 155.07-3.54 150.64-1.4 146.22 0.74 140.32 0.74L140.32 0.74Q137.59 0.74 134.93 0.07 132.27-0.59 130.36-1.7L130.36-1.7Q128.73-2.58 128.18-3.65 127.63-4.72 127.63-5.68L127.63-5.68Q127.63-7.38 128.84-8.89 130.06-10.4 131.91-10.4Z" transform="translate(-3.4700000286102295, 52.380001068115234)"/>
            </g>
          </g>
        </g>
      </g>
    </g>
  </g>
</svg>