<?xml version="1.0" encoding="utf-8"?>
<!-- Generator: Adobe Illustrator 22.1.0, SVG Export Plug-In . SVG Version: 6.00 Build 0)  -->
<svg version="1.1" id="Layer_1" xmlns="http://www.w3.org/2000/svg" xmlns:xlink="http://www.w3.org/1999/xlink" x="0px" y="0px"
	 viewBox="0 0 110 40" style="enable-background:new 0 0 110 40;" xml:space="preserve">
<style type="text/css">
	.st0{fill:url(#SVGID_1_);}
	.st1{enable-background:new    ;}
	.st2{fill:#FFFFFF;}
</style>
<g>

		<linearGradient id="SVGID_1_" gradientUnits="userSpaceOnUse" x1="-495.4546" y1="19.25" x2="-494.4546" y2="19.25" gradientTransform="matrix(110 0 0 40.0001 54500 -750.0013)">
		<stop  offset="0" style="stop-color:#5064B5"/>
		<stop  offset="1" style="stop-color:#7289DA"/>
	</linearGradient>
	<path class="st0" d="M8.8,0c-0.3,0-0.7,0-1,0S7.2,0,6.9,0C6.3,0,5.7,0.1,5.1,0.2S3.9,0.5,3.3,0.8C2.8,1.1,2.3,1.5,1.8,2
		C1.4,2.5,1,3,0.8,3.6C0.5,4.2,0.3,4.9,0.2,5.5C0.1,6.2,0,6.9,0,7.5c0,0.3,0,0.6,0,0.9v23.1c0,0.3,0,0.6,0,0.9c0,0.7,0.1,1.3,0.2,2
		s0.3,1.3,0.6,1.9C1,37,1.4,37.5,1.8,38s0.9,0.9,1.5,1.2c0.5,0.3,1.1,0.5,1.7,0.6C5.7,39.9,6.3,40,6.9,40c0.3,0,0.6,0,0.8,0
		c0.3,0,0.7,0,1,0h92.5c0.3,0,0.7,0,1,0s0.6,0,0.8,0c0.6,0,1.2-0.1,1.8-0.2c0.6-0.1,1.2-0.3,1.8-0.6c0.6-0.3,1.1-0.7,1.5-1.2
		s0.8-1,1.1-1.6c0.3-0.6,0.5-1.2,0.6-1.9s0.2-1.3,0.2-2c0-0.3,0-0.6,0-0.9c0-0.4,0-0.7,0-1.1v-21c0-0.4,0-0.7,0-1.1
		c0-0.3,0-0.6,0-0.9c0-0.7-0.1-1.3-0.2-2s-0.3-1.3-0.6-1.9c-0.6-1.2-1.5-2.2-2.6-2.8c-0.5-0.3-1.1-0.5-1.8-0.6
		C104.2,0.1,103.6,0,103,0c-0.3,0-0.6,0-0.8,0c-0.3,0-0.7,0-1,0L8.8,0z"/>
</g>
<g class="st1">
	<path class="st2" d="M13.2,15.8c-0.1,0.2-0.2,0.4-0.3,0.5c-0.1,0.2-0.3,0.3-0.6,0.4c-0.2,0.1-0.5,0.1-0.9,0.1c-0.6,0-1-0.1-1.3-0.4
		c-0.3-0.3-0.5-0.7-0.5-1.3v-0.4h0.8v0.3c0,0.2,0,0.3,0,0.5c0,0.1,0.1,0.3,0.1,0.4c0.1,0.1,0.2,0.2,0.3,0.3c0.1,0.1,0.3,0.1,0.5,0.1
		c0.4,0,0.6-0.1,0.8-0.3c0.1-0.2,0.2-0.5,0.2-0.8v-4.5h0.8v4.6C13.3,15.4,13.2,15.6,13.2,15.8z"/>
	<path class="st2" d="M14.4,13.6c0.1-0.3,0.2-0.5,0.4-0.7c0.2-0.2,0.4-0.4,0.7-0.5c0.3-0.1,0.6-0.2,0.9-0.2c0.4,0,0.7,0.1,0.9,0.2
		c0.3,0.1,0.5,0.3,0.7,0.5c0.2,0.2,0.3,0.5,0.4,0.7c0.1,0.3,0.1,0.6,0.1,0.9c0,0.3,0,0.6-0.1,0.9c-0.1,0.3-0.2,0.5-0.4,0.7
		c-0.2,0.2-0.4,0.4-0.7,0.5c-0.3,0.1-0.6,0.2-0.9,0.2c-0.3,0-0.7-0.1-0.9-0.2c-0.3-0.1-0.5-0.3-0.7-0.5c-0.2-0.2-0.3-0.5-0.4-0.7
		c-0.1-0.3-0.1-0.6-0.1-0.9C14.3,14.2,14.3,13.9,14.4,13.6z M15.1,15.2c0.1,0.2,0.2,0.4,0.3,0.5c0.1,0.1,0.3,0.2,0.4,0.3
		s0.3,0.1,0.5,0.1s0.4,0,0.5-0.1s0.3-0.2,0.4-0.3c0.1-0.1,0.2-0.3,0.3-0.5c0.1-0.2,0.1-0.4,0.1-0.7s0-0.5-0.1-0.7
		c-0.1-0.2-0.2-0.4-0.3-0.5c-0.1-0.1-0.3-0.3-0.4-0.3s-0.3-0.1-0.5-0.1s-0.4,0-0.5,0.1s-0.3,0.2-0.4,0.3c-0.1,0.1-0.2,0.3-0.3,0.5
		C15.1,14,15,14.2,15,14.5S15.1,15,15.1,15.2z"/>
	<path class="st2" d="M19.5,11.5v-0.9h0.7v0.9H19.5z M20.2,12.3v4.4h-0.7v-4.4H20.2z"/>
	<path class="st2" d="M22,12.3V13h0c0.3-0.5,0.8-0.8,1.4-0.8c0.3,0,0.5,0,0.7,0.1c0.2,0.1,0.4,0.2,0.5,0.3s0.2,0.3,0.3,0.5
		c0,0.2,0.1,0.4,0.1,0.7v2.9h-0.7v-3c0-0.3-0.1-0.5-0.2-0.7c-0.2-0.2-0.4-0.2-0.7-0.2c-0.2,0-0.4,0-0.6,0.1
		c-0.2,0.1-0.3,0.2-0.4,0.3c-0.1,0.1-0.2,0.3-0.2,0.4C22.1,13.8,22,14,22,14.2v2.5h-0.7v-4.4H22z"/>
	<path class="st2" d="M31.4,16.7V16h0c-0.2,0.3-0.4,0.5-0.6,0.6c-0.2,0.1-0.5,0.2-0.8,0.2c-0.3,0-0.5,0-0.7-0.1
		c-0.2-0.1-0.4-0.2-0.5-0.3c-0.1-0.1-0.2-0.3-0.3-0.5c0-0.2-0.1-0.4-0.1-0.7v-2.9h0.7v3c0,0.3,0.1,0.5,0.2,0.7
		c0.2,0.2,0.4,0.2,0.7,0.2c0.2,0,0.4,0,0.6-0.1s0.3-0.2,0.4-0.3c0.1-0.1,0.2-0.3,0.2-0.4c0.1-0.2,0.1-0.4,0.1-0.6v-2.5h0.7v4.4H31.4
		z"/>
	<path class="st2" d="M33.8,15.7c0.1,0.1,0.2,0.2,0.3,0.3s0.2,0.1,0.4,0.1c0.1,0,0.3,0,0.4,0c0.1,0,0.2,0,0.4,0s0.2,0,0.3-0.1
		c0.1,0,0.2-0.1,0.3-0.2c0.1-0.1,0.1-0.2,0.1-0.3c0-0.2-0.1-0.3-0.2-0.4c-0.1-0.1-0.3-0.2-0.5-0.2c-0.2-0.1-0.4-0.1-0.7-0.2
		c-0.3,0-0.5-0.1-0.7-0.2c-0.2-0.1-0.4-0.2-0.5-0.4c-0.1-0.2-0.2-0.4-0.2-0.7c0-0.2,0-0.4,0.1-0.6s0.2-0.3,0.4-0.4
		c0.2-0.1,0.3-0.2,0.5-0.2c0.2,0,0.4-0.1,0.6-0.1c0.3,0,0.5,0,0.7,0.1c0.2,0,0.4,0.1,0.6,0.2c0.2,0.1,0.3,0.2,0.4,0.4
		c0.1,0.2,0.2,0.4,0.2,0.7h-0.7c0-0.1,0-0.3-0.1-0.4c-0.1-0.1-0.1-0.2-0.2-0.2c-0.1-0.1-0.2-0.1-0.3-0.1c-0.1,0-0.2,0-0.4,0
		c-0.1,0-0.2,0-0.3,0c-0.1,0-0.2,0-0.3,0.1c-0.1,0-0.2,0.1-0.2,0.2c-0.1,0.1-0.1,0.2-0.1,0.3c0,0.1,0,0.2,0.1,0.3
		c0.1,0.1,0.2,0.2,0.3,0.2c0.1,0.1,0.3,0.1,0.5,0.1s0.3,0.1,0.5,0.1c0.2,0,0.4,0.1,0.5,0.1c0.2,0.1,0.3,0.1,0.5,0.2
		c0.1,0.1,0.2,0.2,0.3,0.4c0.1,0.1,0.1,0.3,0.1,0.5c0,0.3-0.1,0.5-0.2,0.7c-0.1,0.2-0.3,0.3-0.4,0.4c-0.2,0.1-0.4,0.2-0.6,0.2
		s-0.4,0.1-0.7,0.1c-0.2,0-0.5,0-0.7-0.1c-0.2-0.1-0.4-0.1-0.6-0.3s-0.3-0.3-0.4-0.5c-0.1-0.2-0.2-0.4-0.2-0.7h0.7
		C33.7,15.5,33.7,15.6,33.8,15.7z"/>
	<path class="st2" d="M39.8,13.6c0.1-0.3,0.2-0.5,0.4-0.7c0.2-0.2,0.4-0.4,0.7-0.5c0.3-0.1,0.6-0.2,0.9-0.2c0.4,0,0.7,0.1,0.9,0.2
		c0.3,0.1,0.5,0.3,0.7,0.5c0.2,0.2,0.3,0.5,0.4,0.7c0.1,0.3,0.1,0.6,0.1,0.9c0,0.3,0,0.6-0.1,0.9c-0.1,0.3-0.2,0.5-0.4,0.7
		c-0.2,0.2-0.4,0.4-0.7,0.5c-0.3,0.1-0.6,0.2-0.9,0.2c-0.3,0-0.7-0.1-0.9-0.2c-0.3-0.1-0.5-0.3-0.7-0.5c-0.2-0.2-0.3-0.5-0.4-0.7
		c-0.1-0.3-0.1-0.6-0.1-0.9C39.6,14.2,39.7,13.9,39.8,13.6z M40.5,15.2c0.1,0.2,0.2,0.4,0.3,0.5c0.1,0.1,0.3,0.2,0.4,0.3
		s0.3,0.1,0.5,0.1s0.4,0,0.5-0.1s0.3-0.2,0.4-0.3c0.1-0.1,0.2-0.3,0.3-0.5c0.1-0.2,0.1-0.4,0.1-0.7s0-0.5-0.1-0.7
		c-0.1-0.2-0.2-0.4-0.3-0.5c-0.1-0.1-0.3-0.3-0.4-0.3s-0.3-0.1-0.5-0.1s-0.4,0-0.5,0.1s-0.3,0.2-0.4,0.3c-0.1,0.1-0.2,0.3-0.3,0.5
		c-0.1,0.2-0.1,0.4-0.1,0.7S40.5,15,40.5,15.2z"/>
	<path class="st2" d="M45.5,12.3V13h0c0.3-0.5,0.8-0.8,1.4-0.8c0.3,0,0.5,0,0.7,0.1c0.2,0.1,0.4,0.2,0.5,0.3s0.2,0.3,0.3,0.5
		c0,0.2,0.1,0.4,0.1,0.7v2.9h-0.7v-3c0-0.3-0.1-0.5-0.2-0.7c-0.2-0.2-0.4-0.2-0.7-0.2c-0.2,0-0.4,0-0.6,0.1
		c-0.2,0.1-0.3,0.2-0.4,0.3c-0.1,0.1-0.2,0.3-0.2,0.4c-0.1,0.2-0.1,0.4-0.1,0.6v2.5h-0.7v-4.4H45.5z"/>
</g>
<path class="st2" d="M87.6,18.6c-0.6,0-1.2,0.6-1.2,1.3s0.5,1.3,1.2,1.3c0.6,0,1.2-0.6,1.2-1.3C88.8,19.1,88.3,18.6,87.6,18.6z
	 M91.8,18.6c-0.6,0-1.2,0.6-1.2,1.3s0.5,1.3,1.2,1.3c0.6,0,1.2-0.6,1.2-1.3S92.4,18.6,91.8,18.6z"/>
<path class="st2" d="M97.3,9.1H82.1c-1.3,0-2.3,1-2.3,2.3v15.3c0,1.3,1,2.3,2.3,2.3H95L94.4,27l1.5,1.3l1.4,1.3l2.4,2.2V11.4
	C99.6,10.1,98.6,9.1,97.3,9.1z M92.9,23.9c0,0-0.4-0.5-0.7-0.9c1.5-0.4,2.1-1.3,2.1-1.3c-0.5,0.3-0.9,0.5-1.3,0.7
	c-0.6,0.2-1.1,0.4-1.6,0.5c-1.1,0.2-2.1,0.1-2.9,0c-0.6-0.1-1.2-0.3-1.7-0.5c-0.3-0.1-0.5-0.2-0.8-0.4c0,0-0.1,0-0.1-0.1
	c0,0,0,0,0,0c-0.2-0.1-0.3-0.2-0.3-0.2s0.5,0.9,2,1.3c-0.3,0.4-0.8,0.9-0.8,0.9c-2.5-0.1-3.5-1.7-3.5-1.7c0-3.7,1.6-6.6,1.6-6.6
	c1.6-1.2,3.2-1.2,3.2-1.2l0.1,0.1c-2,0.6-3,1.5-3,1.5s0.2-0.1,0.7-0.3c1.2-0.5,2.2-0.7,2.6-0.7c0.1,0,0.1,0,0.2,0
	c0.7-0.1,1.5-0.1,2.3,0c1.1,0.1,2.2,0.4,3.4,1.1c0,0-0.9-0.9-2.8-1.4l0.2-0.2c0,0,1.6,0,3.2,1.2c0,0,1.6,3,1.6,6.6
	C96.4,22.2,95.4,23.8,92.9,23.9z"/>
<path class="st2" d="M13.7,20.1H9.9v4.3l2.5,2.3v-4.1h1.3c0.8,0,1.3,0.4,1.3,1.1v3.2c0,0.7-0.4,1.1-1.3,1.1H9.9v2.4h3.8
	c2,0,3.9-1,3.9-3.3v-3.4C17.6,21.1,15.7,20.1,13.7,20.1z M33.4,26.9v-3.5c0-1.3,2.2-1.6,2.9-0.3l2.1-0.8c-0.8-1.8-2.3-2.3-3.5-2.3
	c-2,0-4,1.2-4,3.5v3.5c0,2.3,2,3.5,4,3.5c1.3,0,2.8-0.6,3.6-2.3l-2.2-1C35.6,28.4,33.4,28.1,33.4,26.9L33.4,26.9z M26.5,23.8
	c-0.8-0.2-1.3-0.5-1.3-0.9c0-1.2,1.8-1.2,2.9-0.1l1.7-1.3c-1-1.3-2.2-1.6-3.4-1.6c-1.8,0-3.6,1-3.6,3c0,1.9,1.5,3,3.1,3.2
	c0.8,0.1,1.7,0.4,1.7,1c-0.1,1.1-2.3,1-3.3-0.2l-1.6,1.5c0.9,1.2,2.2,1.8,3.4,1.8c1.8,0,3.9-1.1,4-3C30.1,24.8,28.3,24.2,26.5,23.8
	L26.5,23.8z M18.9,30.2h2.5V20.1h-2.5C18.9,20.1,18.9,30.2,18.9,30.2z M61.7,20.1h-3.8v4.3l2.5,2.3v-4.1h1.3c0.8,0,1.3,0.4,1.3,1.1
	v3.2c0,0.7-0.4,1.1-1.3,1.1h-3.8v2.4h3.8c2,0,3.9-1,3.9-3.3v-3.4C65.6,21.1,63.7,20.1,61.7,20.1z M43.2,19.9c-2.1,0-4.2,1.1-4.2,3.5
	v3.5c0,2.3,2.1,3.5,4.2,3.5c2.1,0,4.2-1.2,4.2-3.5v-3.5C47.4,21.1,45.3,19.9,43.2,19.9z M44.9,26.8c0,0.7-0.8,1.1-1.6,1.1
	c-0.8,0-1.6-0.4-1.6-1.1v-3.5c0-0.7,0.8-1.1,1.6-1.1c0.8,0,1.7,0.4,1.7,1.1L44.9,26.8L44.9,26.8z M56.5,23.4
	c-0.1-2.4-1.7-3.3-3.7-3.3h-4v10.1h2.6V27h0.5l2.3,3.2h3.2l-2.7-3.5C55.8,26.3,56.5,25.3,56.5,23.4z M52.8,24.8h-1.5v-2.3h1.5
	C54.4,22.4,54.4,24.8,52.8,24.8L52.8,24.8z"/>
</svg>
