<svg data-v-70b83f88="" version="1.0" xmlns="http://www.w3.org/2000/svg" xmlns:xlink="http://www.w3.org/1999/xlink"
    width="100%" height="100%" viewBox="0 0 340.000000 250.000000" preserveAspectRatio="xMidYMid meet"
    color-interpolation-filters="sRGB" style="margin: auto;">
    <rect data-v-70b83f88="" x="0" y="0" width="100%" height="100%" fill="#020d14" fill-opacity="0" class="background">
    </rect>
    <rect data-v-70b83f88="" x="0" y="0" width="100%" height="100%" fill="url(#watermark)" fill-opacity="1"
        class="watermarklayer"></rect>
    <g data-v-70b83f88="" fill="#D9EAD3" class="icon-text-wrapper icon-svg-group iconsvg"
        transform="translate(104.56999975753904,59.70048522949219)">
        <g class="iconsvg-imagesvg" transform="translate(35.43000030517578,0)"
            mask="url(#7aec7393-732b-4c02-8f19-6e5220efe901)">
            <g>
                <rect fill="#D9EAD3" fill-opacity="0" stroke-width="2" x="0" y="0" width="60" height="67.51814550160356"
                    class="image-rect"></rect> <svg filter="url(#colors7255407869)" x="0" y="0" width="60"
                    height="67.51814550160356" filtersec="colorsf8625044299" class="image-svg-svg primary"
                    style="overflow: visible;"><svg xmlns="http://www.w3.org/2000/svg"
                        viewBox="-0.0000015273690223693848 0 166 186.8000030517578">
                        <path fill="#f8b500"
                            d="M156.6 116l-.5-15.5-1.4-40.4v-2.2l-.1-2.1-.4-11.2L77.3 0 38.1 30.8 77.3 6.3l2.1-1.5.6 81.5 76.7 44.2.4.2z">
                        </path>
                        <path fill="#e60816"
                            d="M60.8 20.9l-13.2 8.2-34.3 21.3-1.8 1.2-1.8 1.1-9.6 5.9-.1 89 46.3 18.5-40.8-21.8-2.4-1L73.4 102l-.1-88.5v-.4z">
                        </path>
                        <path fill="#28bbef"
                            d="M25.9 153.2l13.7 7.3 35.6 19 1.9 1 1.9 1 9.9 5.3 77.1-44.3-7.1-49.4 1.6 46.3.2 2.6-70.9-40.3L13.3 146l-.4.3z">
                        </path>
                    </svg></svg>
                <defs>
                    <filter id="colors7255407869">
                        <feColorMatrix type="matrix"
                            values="0 0 0 0 0.91015625  0 0 0 0 0.80078125  0 0 0 0 0.69921875  0 0 0 1 0"
                            class="icon-fecolormatrix"></feColorMatrix>
                    </filter>
                    <filter id="colorsf8625044299">
                        <feColorMatrix type="matrix"
                            values="0 0 0 0 0.99609375  0 0 0 0 0.99609375  0 0 0 0 0.99609375  0 0 0 1 0"
                            class="icon-fecolormatrix"></feColorMatrix>
                    </filter>
                    <filter id="colorsb1793015341">
                        <feColorMatrix type="matrix" values="0 0 0 0 0  0 0 0 0 0  0 0 0 0 0  0 0 0 1 0"
                            class="icon-fecolormatrix"></feColorMatrix>
                    </filter>
                </defs>
            </g>
            <rect v-gra="id" width="72" height="79.51814270019531" transform="translate(-6, -6)"
                style="pointer-events:none;" fill="url(#DoM-sg6IeYBzGQfLqJP0z)"></rect>
        </g>
        <g transform="translate(0,74.51814270019531)">
            <g data-gra="path-name" fill-rule="" class="tp-name iconsvg-namesvg" transform="translate(0,0)">
                <g transform="scale(1)">
                    <g>
                        <path
                            d="M8.32-12.51L8.32-12.51-5.35-13.96 8.55-13.96Q8.38-13.32 8.32-12.51ZM-4.45-17.06L9.42-17.06 8.93-15.64-4.45-17.06ZM-5.06-10.87L8.32-10.87Q8.38-10 8.58-9.42L8.58-9.42-5.06-10.87ZM12.84-6.32L12.84-6.32-4.22-7.77 9.67-7.77Q10.74-6.74 12.84-6.32ZM-2.03-20.16L11.84-20.16Q11.09-19.67 10.42-18.83L10.42-18.83-2.03-20.16ZM6.8-3.26L-4.77-4.68 7.29-4.68 6.8-3.26ZM5.77-0.13L-5.32-1.55 6.26-1.55 5.77-0.13ZM6.87-0.35L8.68-5.68Q11.38-4.93 13.63-4.93 15.87-4.93 17.29-5.13L17.29-5.13 17.54-6.74 14.87-7Q11.8-7.29 10.53-8.38 9.26-9.48 9.26-11.48L9.26-11.48Q9.26-12.35 9.45-13.42L9.45-13.42Q10.19-17.54 12.16-19.09 14.13-20.64 18.2-20.64 22.28-20.64 25.41-19.83L25.41-19.83 23.74-14.67Q20.93-15.16 19.24-15.16 17.54-15.16 16.32-15L16.32-15 16.06-13.42 18.22-13.19Q21.51-12.84 22.9-11.63 24.28-10.42 24.28-8.38L24.28-8.38Q24.28-6.32 23.41-4.13L23.41-4.13Q22.93-3 22.4-2.24 21.87-1.48 21.04-0.95 20.22-0.42 19.54-0.15 18.87 0.13 17.8 0.26L17.8 0.26Q16.32 0.48 14.13 0.48L14.13 0.48Q10.13 0.48 6.87-0.35L6.87-0.35ZM33.67-13.96L33.41-12.51 19.74-13.96 33.67-13.96ZM33.12-10.87L32.86-9.42 19.22-10.87 33.12-10.87ZM34.76-20.16L34.51-18.7 20.87-20.16 34.76-20.16ZM33.96-15.61L20.32-17.06 34.22-17.06 33.96-15.61ZM18.77-7.77L32.57-7.77Q32.44-6.71 32.41-6.32L32.41-6.32 18.77-7.77ZM18.8-4.68L32.35-4.68Q32.35-3.9 32.44-3.22L32.44-3.22 18.8-4.68ZM20.28-1.55L32.89-1.55Q33.31-0.64 33.93-0.1L33.93-0.1 20.28-1.55ZM39.22-5.03L41.41-5.03Q42.54-5.03 43.02-5.34 43.5-5.64 43.7-6.74L43.7-6.74 46.08-20.16 52.21-20.16 50.21-8.84Q49.73-6.1 49.1-4.42 48.47-2.74 47.34-1.58 46.21-0.42 44.55 0.03 42.89 0.48 40.34 0.48L40.34 0.48Q36.44 0.48 34.88-0.69 33.31-1.87 33.31-4.74L33.31-4.74Q33.31-6.32 33.77-8.84L33.77-8.84 35.76-20.16 41.89-20.16 39.22-5.03ZM69.53-4.87L69.53-4.87 65.53-4.87 64.69 0 58.56 0 62.11-20.16 71.79-20.16Q77.27-20.16 77.27-15.06L77.27-15.06Q77.27-12.64 76.59-10.69 75.92-8.74 75.09-7.59 74.27-6.45 72.84-5.66 71.4-4.87 69.53-4.87ZM66.43-10.03L67.85-10.03Q68.95-10.03 69.51-10.27 70.08-10.51 70.24-11.38L70.24-11.38Q70.66-13.77 70.66-14L70.66-14Q70.66-14.61 70.17-14.8 69.69-15 68.72-15L68.72-15 67.3-15 66.43-10.03ZM57.86-1.55L57.6-0.1 43.92-1.55 57.86-1.55ZM58.95-7.77L58.69-6.32 45.02-7.77 58.95-7.77ZM60.02-13.96L59.76-12.51 46.12-13.96 60.02-13.96ZM60.56-17.06L60.31-15.61 46.66-17.06 60.56-17.06ZM58.4-4.68L58.15-3.22 44.47-4.68 58.4-4.68ZM61.11-20.16L60.85-18.7 47.21-20.16 61.11-20.16ZM59.47-10.87L59.21-9.42 45.57-10.87 59.47-10.87ZM97.78-12.29L96.94-7.61 90.81-7.61 90.4-5.16 97.91-5.16 97.01 0 83.36 0 86.91-20.16 100.39-20.16 98.72-15 92.1-15 91.65-12.29 97.78-12.29ZM82.66-1.55L82.4-0.1 68.72-1.55 82.66-1.55ZM83.75-7.77L83.49-6.32 69.82-7.77 83.75-7.77ZM84.3-10.87L84.04-9.42 70.37-10.87 84.3-10.87ZM84.85-13.96L84.59-12.51 70.92-13.96 84.85-13.96ZM85.36-17.06L85.14-15.61 71.46-17.06 85.36-17.06ZM83.2-4.68L82.95-3.22 69.27-4.68 83.2-4.68ZM85.91-20.16L85.65-18.7 72.01-20.16 85.91-20.16ZM110.33-20.16L120-20.16Q125.51-20.16 125.51-15.22L125.51-15.22Q125.51-13.19 124.9-11.35L124.9-11.35Q123.77-7.87 121.35-6.71L121.35-6.71 123.48 0 116.74 0 115.26-6 113.94-6 112.91 0 106.78 0 110.33-20.16ZM114.81-10.96L116.23-10.96Q117.32-10.96 117.89-11.21 118.45-11.45 118.66-12.59 118.87-13.74 118.87-14L118.87-14Q118.87-14.64 118.37-14.82 117.87-15 116.74-15L116.74-15 115.52-15 114.81-10.96ZM106.07-1.55L105.81-0.1 92.14-1.55 106.07-1.55ZM107.16-7.77L106.91-6.32 93.23-7.77 107.16-7.77ZM108.23-13.96L107.97-12.51 94.33-13.96 108.23-13.96ZM108.78-17.06L108.52-15.61 94.88-17.06 108.78-17.06ZM106.62-4.68L106.36-3.22 92.68-4.68 106.62-4.68ZM109.33-20.16L109.07-18.7 95.43-20.16 109.33-20.16ZM107.68-10.87L107.42-9.42 93.78-10.87 107.68-10.87Z"
                            transform="translate(5.349999904632568, 20.639999389648438)"></path>
                    </g> <!----> <!----> <!----> <!----> <!----> <!---->
                    <g data-gra="path-name-1" fill="#D9EAD3" transform="translate(0,24.119998931884766)">
                        <g transform="scale(1.05218)">
                            <path
                                d="M13.44-4.51L13.44-4.51 13.42-1.54Q12.55-1.37 11.69-1.22 10.83-1.06 9.96-0.95L9.96-0.95Q9.05-0.84 8.14-0.74 7.22-0.65 6.31-0.65L6.31-0.65Q6.04-0.65 5.53-0.67 5.02-0.68 4.47-0.74 3.92-0.8 3.42-0.88 2.93-0.97 2.7-1.1L2.7-1.1Q2.49-1.24 2.3-1.42 2.11-1.6 1.96-1.79L1.96-1.79Q1.56-2.28 1.29-2.87 1.03-3.46 0.87-4.09 0.72-4.71 0.66-5.36 0.59-6.01 0.59-6.63L0.59-6.63Q0.59-7.39 0.67-8.21 0.76-9.03 0.95-9.83 1.14-10.63 1.45-11.37 1.77-12.11 2.22-12.74L2.22-12.74Q2.36-12.91 2.57-13.15 2.78-13.4 2.98-13.52L2.98-13.52Q3.5-13.8 4.13-13.99 4.77-14.18 5.46-14.28 6.14-14.39 6.81-14.44 7.49-14.48 8.06-14.48L8.06-14.48Q9.14-14.48 10.23-14.36 11.31-14.24 12.34-13.93L12.34-13.93Q12.3-13.42 12.28-12.9 12.26-12.37 12.26-11.86L12.26-11.86Q12.26-10.63 12.32-9.37L12.32-9.37Q11.46-9.69 10.53-9.84 9.6-9.98 8.69-9.98L8.69-9.98Q8.5-9.98 8.14-9.95 7.77-9.92 7.32-9.87 6.86-9.83 6.38-9.75 5.89-9.68 5.47-9.56 5.06-9.45 4.74-9.3 4.43-9.14 4.33-8.97L4.33-8.97Q4.26-8.82 4.21-8.54 4.16-8.27 4.13-7.96 4.11-7.66 4.1-7.38 4.09-7.09 4.09-6.92L4.09-6.92Q4.09-6.75 4.12-6.23 4.16-5.72 4.22-5.14 4.28-4.56 4.36-4.09 4.45-3.61 4.54-3.54L4.54-3.54Q4.64-3.48 4.86-3.47 5.08-3.46 5.15-3.46L5.15-3.46Q6.08-3.46 7.15-3.55 8.21-3.65 9.3-3.81 10.4-3.97 11.46-4.15 12.53-4.33 13.44-4.51ZM31.02-8.12L31.02-8.12Q31.02-7.87 31.02-7.63 31.02-7.39 31-7.17L31-7.17Q30.98-6.98 30.96-6.5 30.93-6.03 30.88-5.41 30.83-4.79 30.77-4.11 30.7-3.42 30.61-2.84 30.53-2.26 30.43-1.84 30.34-1.43 30.24-1.33L30.24-1.33Q29.67-0.76 28.88-0.48 28.09-0.21 27.24-0.11 26.38-0.02 25.53-0.04 24.67-0.06 23.93-0.06L23.93-0.06Q23.68-0.06 23.1-0.07 22.51-0.08 21.76-0.1 21-0.11 20.19-0.16 19.37-0.21 18.66-0.29 17.94-0.38 17.42-0.5 16.9-0.63 16.77-0.82L16.77-0.82Q16.61-1.03 16.5-1.27 16.39-1.52 16.29-1.75L16.29-1.75Q16.04-2.38 15.83-3.09 15.63-3.8 15.48-4.55 15.34-5.3 15.25-6.04 15.17-6.79 15.17-7.45L15.17-7.45Q15.17-7.81 15.23-8.39 15.28-8.97 15.38-9.65 15.47-10.32 15.61-11.03 15.74-11.73 15.9-12.34 16.06-12.94 16.25-13.39 16.44-13.84 16.67-13.99L16.67-13.99Q16.86-14.12 17.37-14.24 17.89-14.35 18.57-14.44 19.26-14.52 20.04-14.59 20.81-14.66 21.52-14.7 22.22-14.75 22.79-14.77 23.36-14.79 23.63-14.79L23.63-14.79Q23.99-14.79 24.61-14.75 25.22-14.71 25.95-14.63 26.67-14.54 27.41-14.42 28.15-14.29 28.79-14.12 29.43-13.95 29.88-13.74 30.34-13.53 30.45-13.29L30.45-13.29Q30.55-13.08 30.63-12.69 30.72-12.3 30.77-11.8 30.83-11.31 30.88-10.76 30.93-10.21 30.96-9.7 30.98-9.2 31-8.78 31.02-8.36 31.02-8.12ZM27.62-7.49L27.62-7.49Q27.62-7.87 27.58-8.3 27.54-8.72 27.33-9.05L27.33-9.05Q27.18-9.28 26.6-9.41 26.02-9.54 25.33-9.6 24.64-9.66 23.99-9.67 23.34-9.68 23.08-9.68L23.08-9.68Q22.87-9.68 22.34-9.64 21.82-9.6 21.24-9.51 20.66-9.43 20.17-9.3 19.67-9.18 19.56-9.01L19.56-9.01Q19.45-8.88 19.38-8.51 19.31-8.14 19.27-7.71 19.22-7.28 19.2-6.89 19.18-6.5 19.18-6.33L19.18-6.33Q19.18-6.18 19.19-5.87 19.2-5.57 19.24-5.25 19.27-4.92 19.32-4.64 19.37-4.35 19.46-4.22L19.46-4.22Q19.52-4.12 19.81-4.05 20.09-3.97 20.5-3.91 20.91-3.84 21.37-3.8 21.82-3.76 22.25-3.74 22.68-3.71 23.01-3.7 23.34-3.69 23.48-3.69L23.48-3.69Q23.7-3.69 24.26-3.73 24.83-3.76 25.44-3.85 26.06-3.93 26.58-4.06 27.11-4.18 27.26-4.35L27.26-4.35Q27.37-4.49 27.45-4.91 27.52-5.34 27.56-5.85 27.6-6.35 27.61-6.81 27.62-7.28 27.62-7.49ZM49.69-0.53L49.69 0.32Q49.33 0.3 48.99 0.27L48.99 0.27Q48.7 0.23 48.42 0.21 48.15 0.19 48.02 0.19L48.02 0.19Q47.27 0.19 46.53 0.22 45.79 0.25 45.07 0.32L45.07 0.32Q45.09-0.48 45.1-1.25 45.11-2.01 45.11-2.81L45.11-2.81Q45.11-4.24 45.06-5.65 45.01-7.05 44.97-8.46L44.97-8.46 40.98 0.57Q40.11-1.81 39.11-4.1 38.11-6.39 37.03-8.67L37.03-8.67 37.33 0.72Q37.12 0.72 36.91 0.71 36.69 0.7 36.46 0.7L36.46 0.7Q35.74 0.7 35.04 0.76 34.35 0.82 33.65 0.87L33.65 0.87Q33.74-0.89 33.84-2.64 33.93-4.39 33.93-6.16L33.93-6.16Q33.93-8.23 33.9-10.28 33.87-12.34 33.85-14.41L33.85-14.41Q35.22-14.41 36.53-14.48 37.83-14.56 39.2-14.69L39.2-14.69Q39.65-13.17 40.14-11.68 40.62-10.19 41.17-8.71L41.17-8.71Q41.76-10.11 42.51-11.46 43.26-12.81 44.04-14.14L44.04-14.14Q45.34-14.18 46.6-14.22 47.86-14.26 49.16-14.28L49.16-14.28Q49.21-12.56 49.3-10.89 49.38-9.22 49.46-7.51L49.46-7.51Q49.52-6.16 49.57-4.81 49.61-3.46 49.65-2.13L49.65-2.13 49.69-0.53ZM66.42-9.54L66.42-9.54Q66.42-9.12 66.37-8.53 66.32-7.95 66.22-7.34 66.11-6.73 65.92-6.2 65.73-5.66 65.45-5.36L65.45-5.36Q65.33-5.23 64.71-5.1 64.1-4.98 63.23-4.86 62.37-4.73 61.38-4.62 60.39-4.51 59.51-4.42 58.62-4.33 57.98-4.28 57.33-4.22 57.16-4.22L57.16-4.22 57.01-0.27Q56.42-0.23 55.85-0.26 55.28-0.29 54.69-0.29L54.69-0.29Q54.31-0.29 53.93-0.27 53.55-0.25 53.17-0.21L53.17-0.21Q53.17-2 53.17-3.74 53.17-5.49 53.09-7.28L53.09-7.28Q53.03-8.9 52.99-10.49 52.94-12.09 52.9-13.71L52.9-13.71Q54.86-13.84 56.85-14.04 58.83-14.24 60.81-14.24L60.81-14.24Q61.15-14.24 61.89-14.17 62.63-14.1 63.45-13.96 64.27-13.82 64.96-13.61 65.66-13.4 65.88-13.13L65.88-13.13Q66.04-12.96 66.14-12.47 66.25-11.98 66.3-11.41 66.36-10.85 66.39-10.32 66.42-9.79 66.42-9.54ZM61.09-9.68L61.09-9.68Q61.09-9.85 61.07-10.11 61.06-10.38 61.01-10.64 60.96-10.89 60.87-11.11 60.77-11.33 60.62-11.42L60.62-11.42Q60.52-11.48 60.31-11.52 60.11-11.56 59.88-11.58 59.65-11.6 59.44-11.6 59.23-11.61 59.14-11.61L59.14-11.61Q58.43-11.61 57.73-11.54 57.03-11.46 56.3-11.35L56.3-11.35Q56.36-10.78 56.37-10.23 56.38-9.68 56.38-9.12L56.38-9.12Q56.38-8.23 56.44-7.32L56.44-7.32Q56.68-7.32 57.29-7.35 57.9-7.38 58.57-7.44 59.23-7.51 59.82-7.63 60.41-7.76 60.62-7.96L60.62-7.96Q60.96-8.29 61.03-8.75 61.09-9.22 61.09-9.68ZM83.03-6.27L83.03-6.27Q83.03-5.19 82.98-4.12 82.93-3.06 82.78-1.98L82.78-1.98Q82.48-1.75 82.17-1.55 81.87-1.35 81.55-1.12L81.55-1.12Q81.28-0.95 80.97-0.73 80.65-0.51 80.31-0.3 79.97-0.1 79.62 0.07 79.27 0.23 78.96 0.29L78.96 0.29Q78.68 0.36 78.2 0.35 77.73 0.34 77.4 0.34L77.4 0.34Q76.6 0.38 75.81 0.4 75.01 0.42 74.17 0.42L74.17 0.42Q73.79 0.42 73.3 0.43 72.8 0.44 72.4 0.34L72.4 0.34Q72.29 0.32 72.02 0.16 71.76 0 71.42-0.24 71.09-0.48 70.73-0.75 70.37-1.03 70.04-1.28 69.7-1.54 69.47-1.74 69.23-1.94 69.13-2.01L69.13-2.01Q69.04-3.02 68.99-4.02 68.94-5.02 68.94-6.03L68.94-6.03Q68.94-7.98 69.09-9.9 69.23-11.82 69.4-13.76L69.4-13.76 73.32-13.86Q73.13-12.64 73.05-11.28 72.97-9.92 72.97-8.67L72.97-8.67Q72.97-8.46 72.99-7.94 73.01-7.41 73.07-6.82 73.13-6.23 73.21-5.74 73.3-5.25 73.43-5.09L73.43-5.09Q73.49-5.04 73.72-4.99 73.96-4.94 74.3-4.9 74.63-4.87 75.01-4.85 75.39-4.83 75.73-4.82 76.07-4.81 76.34-4.8 76.6-4.79 76.72-4.79L76.72-4.79Q76.81-4.79 77.04-4.79 77.27-4.79 77.51-4.8 77.75-4.81 77.95-4.83 78.16-4.85 78.24-4.9L78.24-4.9Q78.47-5.06 78.58-5.65 78.7-6.23 78.75-6.94 78.81-7.64 78.81-8.29 78.81-8.93 78.81-9.22L78.81-9.22Q78.81-9.66 78.82-10.09 78.83-10.53 78.83-10.97L78.83-10.97Q78.83-11.86 78.81-12.73 78.79-13.59 78.75-14.48L78.75-14.48Q79.15-14.45 79.54-14.44 79.93-14.43 80.33-14.43L80.33-14.43Q80.81-14.43 81.27-14.45 81.74-14.47 82.19-14.56L82.19-14.56Q82.59-12.53 82.81-10.45 83.03-8.36 83.03-6.27ZM96.64-11.06L96.64-11.06 96.64-9.73 92.97-9.54Q92.9-8.44 92.86-7.36 92.82-6.27 92.82-5.19L92.82-5.19Q92.82-3.86 92.75-2.54 92.69-1.22 92.59 0.1L92.59 0.1Q91.91 0.13 91.22 0.16 90.54 0.19 89.85 0.19L89.85 0.19Q89.61 0.19 89.37 0.18 89.13 0.17 88.9 0.17L88.9 0.17Q88.94-0.99 88.97-2.14 89-3.29 89-4.43L89-4.43Q89-5.57 88.94-6.72 88.88-7.87 88.81-9.03L88.81-9.03Q88.26-9.01 87.7-8.99 87.14-8.97 86.57-8.97L86.57-8.97Q86.24-8.97 85.93-8.97 85.61-8.97 85.29-8.99L85.29-8.99Q85.23-10.4 85.22-11.79 85.2-13.17 85.18-14.56L85.18-14.56Q88.03-14.5 90.84-14.4 93.66-14.29 96.49-14.22L96.49-14.22Q96.56-13.4 96.6-12.63 96.64-11.86 96.64-11.06ZM109.3-14.1L109.51-11.58Q107.65-11.48 105.81-11.38 103.98-11.27 102.11-11.12L102.11-11.12 102.08-9.62 106.98-9.9Q107.08-9.26 107.12-8.63 107.17-8 107.17-7.36L107.17-7.36Q107.17-7.09 107.16-6.81 107.15-6.52 107.15-6.25L107.15-6.25 102.59-5.44 102.87-3.08Q104.32-3.17 105.75-3.36 107.19-3.54 108.65-3.67L108.65-3.67Q108.79-2.72 108.92-1.76 109.05-0.8 109.3 0.11L109.3 0.11Q106.6 0.1 103.94 0.12 101.28 0.15 98.58 0.15L98.58 0.15Q98.64-2.07 98.71-4.28 98.79-6.48 98.79-8.72L98.79-8.72 98.79-9.09Q98.79-10.38 98.75-11.66 98.71-12.94 98.67-14.26L98.67-14.26Q100.18-14.24 101.67-14.25 103.16-14.26 104.68-14.26L104.68-14.26Q105.84-14.26 106.99-14.21 108.14-14.16 109.3-14.1L109.3-14.1ZM124.96-9.56L124.96-9.56Q124.96-8 124.01-7.11 123.06-6.22 121.5-6.14L121.5-6.14Q123.39-3 124.79 0.29L124.79 0.29 119.24 0.42Q119.09-1.12 118.78-2.41 118.48-3.71 117.93-5.13L117.93-5.13Q117.3-5.09 116.68-5.04 116.07-4.98 115.46-4.94L115.46-4.94 115.55-0.63Q114.47-0.57 113.39-0.57L113.39-0.57Q112.84-0.57 112.31-0.59 111.79-0.61 111.26-0.67L111.26-0.67Q111.39-2.41 111.5-4.15 111.62-5.89 111.64-7.62L111.64-7.62Q111.69-10.7 111.81-13.78L111.81-13.78Q113.6-13.88 115.37-13.99 117.15-14.1 118.94-14.1L118.94-14.1Q119.39-14.1 119.93-14.09 120.46-14.07 121-13.98 121.54-13.9 122.04-13.74 122.55-13.59 122.95-13.34L122.95-13.34Q123.92-12.74 124.44-11.72 124.96-10.7 124.96-9.56ZM120.55-9.87L120.55-9.87Q120.55-10.02 120.54-10.28 120.53-10.55 120.5-10.83 120.46-11.1 120.38-11.34 120.31-11.58 120.17-11.69L120.17-11.69Q120.08-11.77 119.85-11.8 119.62-11.84 119.36-11.87 119.11-11.9 118.87-11.91 118.63-11.92 118.54-11.92L118.54-11.92Q117.78-11.92 117.05-11.84 116.31-11.77 115.59-11.65L115.59-11.65 116.1-7.96Q116.52-7.87 116.98-7.83 117.44-7.79 117.87-7.79L117.87-7.79Q118.06-7.79 118.43-7.81 118.8-7.83 119.19-7.89 119.58-7.95 119.92-8.05 120.25-8.15 120.38-8.33L120.38-8.33Q120.44-8.4 120.48-8.62 120.51-8.84 120.52-9.08 120.53-9.31 120.54-9.54 120.55-9.77 120.55-9.87Z"
                                transform="translate(-0.5900000333786011, 14.789999961853027)"></path>
                        </g>
                    </g>
                </g>
            </g>
            <g data-gra="path-slogan" fill-rule="" class="tp-slogan iconsvg-slogansvg"
                fill="url(#4b25e3f4-ca32-45b2-a4a9-9ac8be5885fa)" transform="translate(5,46.597137451171875)">
                <rect x="0" height="1" y="4.240000247955322" width="25.64000129699707"></rect>
                <rect height="1" y="4.240000247955322" width="25.64000129699707" x="95.21999931335449"></rect>
                <g transform="translate(28.64000129699707,0)">
                    <g transform="scale(1)">
                        <path
                            d="M9.82-0.06L9.82-0.06Q9.26 0.07 8.70 0.18Q8.14 0.29 7.57 0.39L7.57 0.39Q6.87-0.68 6.18-1.72Q5.50-2.75 4.76-3.79L4.76-3.79L3.50-2.57L3.39 0.04Q3.12 0.02 2.85 0.02Q2.59 0.01 2.33 0.01L2.33 0.01Q2.09 0.01 1.85 0.02Q1.62 0.04 1.38 0.07L1.38 0.07Q1.24-1.01 1.12-2.08Q1.00-3.15 0.90-4.24L0.90-4.24Q0.81-5.33 0.76-6.42Q0.70-7.50 0.66-8.59L0.66-8.59Q1.54-8.57 2.40-8.56Q3.26-8.55 4.14-8.53L4.14-8.53L4.07-5.81Q4.70-6.47 5.26-7.15Q5.82-7.83 6.42-8.53L6.42-8.53Q6.98-8.57 7.56-8.61Q8.13-8.65 8.70-8.70L8.70-8.70L8.65-7.83L6.16-5.24Q7.05-3.91 7.96-2.64Q8.87-1.36 9.82-0.06ZM15.64-2.48L15.82-0.29Q14.43-0.19 13.05-0.09Q11.67 0 10.28 0.08L10.28 0.08Q10.22-2.16 10.18-4.37Q10.15-6.57 10.05-8.82L10.05-8.82Q10.84-8.84 11.60-8.87Q12.36-8.91 13.14-8.96L13.14-8.96Q13.01-8.10 12.90-7.22Q12.79-6.35 12.73-5.47L12.73-5.47Q12.68-4.73 12.65-4.00Q12.62-3.27 12.60-2.53L12.60-2.53Q13.37-2.51 14.13-2.51Q14.88-2.51 15.64-2.48L15.64-2.48ZM25.64-3.87L25.64-3.87Q25.64-3.20 25.61-2.54Q25.58-1.89 25.49-1.22L25.49-1.22Q25.30-1.08 25.11-0.96Q24.93-0.83 24.73-0.69L24.73-0.69Q24.56-0.59 24.37-0.45Q24.18-0.32 23.96-0.19Q23.75-0.06 23.54 0.04Q23.32 0.14 23.13 0.18L23.13 0.18Q22.96 0.22 22.66 0.22Q22.37 0.21 22.17 0.21L22.17 0.21Q21.68 0.23 21.19 0.25Q20.70 0.26 20.18 0.26L20.18 0.26Q19.95 0.26 19.64 0.26Q19.34 0.27 19.09 0.21L19.09 0.21Q19.02 0.20 18.86 0.10Q18.69 0 18.49-0.15Q18.28-0.29 18.06-0.46Q17.84-0.63 17.63-0.79Q17.43-0.95 17.28-1.07Q17.13-1.20 17.07-1.24L17.07-1.24Q17.02-1.86 16.99-2.48Q16.96-3.09 16.96-3.71L16.96-3.71Q16.96-4.92 17.04-6.11Q17.13-7.29 17.24-8.48L17.24-8.48L19.65-8.54Q19.54-7.79 19.49-6.96Q19.44-6.12 19.44-5.34L19.44-5.34Q19.44-5.21 19.45-4.89Q19.46-4.57 19.50-4.21Q19.54-3.84 19.59-3.54Q19.64-3.23 19.72-3.14L19.72-3.14Q19.76-3.11 19.90-3.08Q20.05-3.05 20.26-3.02Q20.46-3 20.70-2.99Q20.93-2.98 21.14-2.97Q21.35-2.96 21.52-2.96Q21.68-2.95 21.75-2.95L21.75-2.95Q21.81-2.95 21.95-2.95Q22.09-2.95 22.24-2.96Q22.38-2.96 22.51-2.98Q22.64-2.99 22.69-3.02L22.69-3.02Q22.83-3.12 22.90-3.48Q22.97-3.84 23.00-4.28Q23.04-4.71 23.04-5.11Q23.04-5.51 23.04-5.68L23.04-5.68Q23.04-5.95 23.04-6.22Q23.05-6.49 23.05-6.76L23.05-6.76Q23.05-7.31 23.04-7.85Q23.03-8.38 23.00-8.93L23.00-8.93Q23.25-8.91 23.49-8.90Q23.73-8.89 23.98-8.89L23.98-8.89Q24.27-8.89 24.56-8.91Q24.84-8.92 25.13-8.98L25.13-8.98Q25.37-7.72 25.51-6.44Q25.64-5.16 25.64-3.87ZM36.12-5.80L36.12-5.80Q36.12-5.60 36.09-5.43Q36.07-5.25 36.01-5.06L36.01-5.06Q35.94-4.86 35.74-4.68Q35.54-4.50 35.30-4.34Q35.05-4.18 34.79-4.07Q34.54-3.96 34.36-3.90L34.36-3.90Q34.42-3.89 34.59-3.86Q34.77-3.83 34.96-3.79Q35.16-3.74 35.32-3.67Q35.48-3.61 35.53-3.54L35.53-3.54Q35.61-3.40 35.67-3.19Q35.72-2.99 35.74-2.76Q35.77-2.53 35.78-2.31Q35.79-2.10 35.79-1.93L35.79-1.93Q35.79-1.88 35.79-1.81Q35.79-1.75 35.78-1.69L35.78-1.69Q35.75-1.57 35.61-1.38Q35.47-1.18 35.29-0.98Q35.10-0.79 34.92-0.62Q34.73-0.45 34.64-0.38L34.64-0.38Q34.51-0.28 34.39-0.21Q34.27-0.14 34.13-0.08L34.13-0.08Q34.02-0.04 33.67-0.01Q33.33 0.01 32.94 0.03Q32.55 0.05 32.21 0.05Q31.88 0.06 31.76 0.06L31.76 0.06Q30.82 0.06 29.91 0.03Q28.99 0 28.05-0.05L28.05-0.05Q28.08-0.88 28.09-1.71Q28.10-2.53 28.10-3.38L28.10-3.38Q28.10-4.32 28.04-5.26Q27.98-6.20 27.91-7.14L27.91-7.14L27.01-7.22Q26.95-7.69 26.92-8.14Q26.89-8.59 26.85-9.05L26.85-9.05Q27.81-9.02 28.77-9Q29.73-8.98 30.69-8.95L30.69-8.95Q31.10-8.94 31.73-8.88Q32.37-8.81 33.03-8.71Q33.69-8.60 34.28-8.45Q34.88-8.30 35.21-8.11L35.21-8.11Q35.47-7.97 35.64-7.69Q35.81-7.41 35.92-7.07Q36.02-6.74 36.07-6.40Q36.12-6.06 36.12-5.80ZM33-5.85L33-5.85Q33-5.96 32.99-6.15Q32.98-6.33 32.94-6.52Q32.91-6.70 32.85-6.87Q32.79-7.03 32.71-7.14L32.71-7.14Q32.68-7.17 32.58-7.20Q32.47-7.22 32.35-7.23Q32.23-7.24 32.11-7.24Q31.99-7.24 31.96-7.24L31.96-7.24Q31.37-7.24 30.80-7.18Q30.22-7.11 29.65-7.02L29.65-7.02Q29.72-6.45 29.78-5.87Q29.84-5.30 29.92-4.72L29.92-4.72Q30.06-4.72 30.47-4.75Q30.88-4.77 31.34-4.80Q31.80-4.84 32.20-4.89Q32.60-4.95 32.72-5.02L32.72-5.02Q32.92-5.14 32.96-5.39Q33-5.64 33-5.85ZM32.91-2.54L32.91-2.54Q32.91-2.72 32.86-2.90Q32.81-3.08 32.67-3.20L32.67-3.20Q32.64-3.23 32.51-3.26Q32.38-3.28 32.24-3.29Q32.10-3.29 31.97-3.30Q31.84-3.30 31.79-3.30L31.79-3.30Q31.29-3.30 30.80-3.25Q30.30-3.20 29.81-3.14L29.81-3.14L30-1.65Q30.06-1.65 30.28-1.66Q30.49-1.68 30.78-1.69Q31.07-1.71 31.39-1.73Q31.71-1.76 31.99-1.79Q32.27-1.83 32.47-1.87Q32.67-1.91 32.72-1.97L32.72-1.97Q32.82-2.10 32.87-2.24Q32.91-2.38 32.91-2.54ZM45.98-5.80L45.98-5.80Q45.98-5.60 45.96-5.43Q45.94-5.25 45.88-5.06L45.88-5.06Q45.81-4.86 45.61-4.68Q45.41-4.50 45.16-4.34Q44.92-4.18 44.66-4.07Q44.40-3.96 44.23-3.90L44.23-3.90Q44.29-3.89 44.46-3.86Q44.64-3.83 44.83-3.79Q45.02-3.74 45.19-3.67Q45.35-3.61 45.40-3.54L45.40-3.54Q45.48-3.40 45.53-3.19Q45.59-2.99 45.61-2.76Q45.63-2.53 45.64-2.31Q45.66-2.10 45.66-1.93L45.66-1.93Q45.66-1.88 45.66-1.81Q45.66-1.75 45.64-1.69L45.64-1.69Q45.62-1.57 45.48-1.38Q45.34-1.18 45.15-0.98Q44.96-0.79 44.78-0.62Q44.60-0.45 44.51-0.38L44.51-0.38Q44.38-0.28 44.26-0.21Q44.13-0.14 43.99-0.08L43.99-0.08Q43.89-0.04 43.54-0.01Q43.20 0.01 42.81 0.03Q42.42 0.05 42.08 0.05Q41.74 0.06 41.63 0.06L41.63 0.06Q40.69 0.06 39.77 0.03Q38.86 0 37.92-0.05L37.92-0.05Q37.95-0.88 37.96-1.71Q37.97-2.53 37.97-3.38L37.97-3.38Q37.97-4.32 37.91-5.26Q37.85-6.20 37.78-7.14L37.78-7.14L36.88-7.22Q36.82-7.69 36.79-8.14Q36.76-8.59 36.71-9.05L36.71-9.05Q37.68-9.02 38.64-9Q39.60-8.98 40.56-8.95L40.56-8.95Q40.97-8.94 41.60-8.88Q42.23-8.81 42.90-8.71Q43.56-8.60 44.15-8.45Q44.74-8.30 45.08-8.11L45.08-8.11Q45.34-7.97 45.51-7.69Q45.68-7.41 45.79-7.07Q45.89-6.74 45.94-6.40Q45.98-6.06 45.98-5.80ZM42.87-5.85L42.87-5.85Q42.87-5.96 42.86-6.15Q42.84-6.33 42.81-6.52Q42.77-6.70 42.71-6.87Q42.66-7.03 42.57-7.14L42.57-7.14Q42.55-7.17 42.45-7.20Q42.34-7.22 42.22-7.23Q42.09-7.24 41.98-7.24Q41.86-7.24 41.82-7.24L41.82-7.24Q41.24-7.24 40.66-7.18Q40.09-7.11 39.52-7.02L39.52-7.02Q39.59-6.45 39.64-5.87Q39.70-5.30 39.79-4.72L39.79-4.72Q39.93-4.72 40.34-4.75Q40.75-4.77 41.21-4.80Q41.67-4.84 42.07-4.89Q42.47-4.95 42.59-5.02L42.59-5.02Q42.79-5.14 42.83-5.39Q42.87-5.64 42.87-5.85ZM42.77-2.54L42.77-2.54Q42.77-2.72 42.73-2.90Q42.68-3.08 42.54-3.20L42.54-3.20Q42.50-3.23 42.38-3.26Q42.25-3.28 42.11-3.29Q41.96-3.29 41.84-3.30Q41.71-3.30 41.66-3.30L41.66-3.30Q41.16-3.30 40.66-3.25Q40.17-3.20 39.68-3.14L39.68-3.14L39.87-1.65Q39.93-1.65 40.14-1.66Q40.36-1.68 40.65-1.69Q40.93-1.71 41.26-1.73Q41.58-1.76 41.86-1.79Q42.14-1.83 42.34-1.87Q42.54-1.91 42.59-1.97L42.59-1.97Q42.69-2.10 42.73-2.24Q42.77-2.38 42.77-2.54ZM53.91-8.70L54.04-7.14Q52.89-7.08 51.76-7.01Q50.63-6.95 49.48-6.86L49.48-6.86L49.45-5.93L52.48-6.11Q52.54-5.71 52.56-5.32Q52.59-4.93 52.59-4.54L52.59-4.54Q52.59-4.37 52.59-4.20Q52.58-4.02 52.58-3.86L52.58-3.86L49.77-3.35L49.95-1.90Q50.84-1.96 51.72-2.07Q52.61-2.18 53.51-2.26L53.51-2.26Q53.59-1.68 53.67-1.08Q53.75-0.49 53.91 0.07L53.91 0.07Q52.24 0.06 50.60 0.08Q48.96 0.09 47.30 0.09L47.30 0.09Q47.33-1.28 47.38-2.64Q47.43-4.00 47.43-5.38L47.43-5.38L47.43-5.60Q47.43-6.40 47.40-7.19Q47.38-7.98 47.36-8.79L47.36-8.79Q48.28-8.78 49.20-8.78Q50.12-8.79 51.06-8.79L51.06-8.79Q51.77-8.79 52.48-8.76Q53.19-8.73 53.91-8.70L53.91-8.70ZM64.24-3.77L64.24-3.77Q64.24-2.74 64.24-1.74Q64.23-0.74 64.22 0.29L64.22 0.29Q63.49 0.26 62.78 0.26L62.78 0.26Q62.43 0.26 62.07 0.29Q61.71 0.33 61.36 0.39L61.36 0.39Q60.91-0.59 60.47-1.54Q60.02-2.50 59.58-3.47L59.58-3.47Q59.25-4.18 58.96-4.90Q58.66-5.61 58.37-6.34L58.37-6.34Q58.27-4.76 58.15-3.19Q58.04-1.63 57.97-0.05L57.97-0.05L55.44-0.12Q55.38-2.37 55.34-4.59Q55.29-6.82 55.17-9.07L55.17-9.07L59.75-9.09Q59.99-8.51 60.19-7.92Q60.40-7.32 60.59-6.71L60.59-6.71Q60.86-5.79 61.20-4.88Q61.54-3.97 61.88-3.06L61.88-3.06Q61.86-4.52 61.82-5.98Q61.78-7.43 61.76-8.91L61.76-8.91L64.13-8.63Q64.17-7.41 64.21-6.20Q64.24-4.99 64.24-3.77Z"
                            transform="translate(-0.65625, 9.09375)"></path>
                    </g>
                </g>
            </g>
        </g>
    </g>
    <defs v-gra="od">
        <linearGradient x1="0" y1="1" x2="0" y2="0" id="4b25e3f4-ca32-45b2-a4a9-9ac8be5885fa">
            <stop offset="0%" stop-color="#2ebef3"></stop>
            <stop offset="100%" stop-color="#fffc9f"></stop>
        </linearGradient>
        <filter id="42443b3f1de60f6b6fd3b6a9844b4764" filterUnits="userSpaceOnUse">
            <feColorMatrix type="matrix" values="0 0 0 0 0.99609375  0 0 0 0 0.99609375  0 0 0 0 0.99609375  0 0 0 1 0">
            </feColorMatrix>
        </filter>
    </defs>
    <defs v-gra="id">
        <filter id="ad89752b-bbdc-45d3-b0b4-7455f09f15c5" filterUnits="userSpaceOnUse">
            <feColorMatrix type="matrix" values="0 0 0 0 0.99609375  0 0 0 0 0.99609375  0 0 0 0 0.99609375  0 0 0 1 0">
            </feColorMatrix>
        </filter>
        <linearGradient x1="0" y1="1" x2="0" y2="0" id="DoM-sg6IeYBzGQfLqJP0z">
            <stop offset="0%" stop-color="#2ebef3"></stop>
            <stop offset="100%" stop-color="#fffc9f"></stop>
        </linearGradient>
        <filter id="42443b3f1de60f6b6fd3b6a9844b4764" filterUnits="userSpaceOnUse">
            <feColorMatrix type="matrix" values="0 0 0 0 0.99609375  0 0 0 0 0.99609375  0 0 0 0 0.99609375  0 0 0 1 0">
            </feColorMatrix>
        </filter>
    </defs>
    <mask v-gra="im" id="7aec7393-732b-4c02-8f19-6e5220efe901">
        <g class="iconsvg-imagesvg" filter="url(#ad89752b-bbdc-45d3-b0b4-7455f09f15c5)">
            <g>
                <rect fill="#D9EAD3" fill-opacity="0" stroke-width="2" x="0" y="0" width="60" height="67.51814550160356"
                    class="image-rect"></rect> <svg x="0" y="0" width="60" height="67.51814550160356"
                    filtersec="colorsf8625044299" class="image-svg-svg primary" style="overflow: visible;"><svg
                        xmlns="http://www.w3.org/2000/svg" viewBox="-0.0000015273690223693848 0 166 186.8000030517578">
                        <path fill="#f8b500"
                            d="M156.6 116l-.5-15.5-1.4-40.4v-2.2l-.1-2.1-.4-11.2L77.3 0 38.1 30.8 77.3 6.3l2.1-1.5.6 81.5 76.7 44.2.4.2z">
                        </path>
                        <path fill="#e60816"
                            d="M60.8 20.9l-13.2 8.2-34.3 21.3-1.8 1.2-1.8 1.1-9.6 5.9-.1 89 46.3 18.5-40.8-21.8-2.4-1L73.4 102l-.1-88.5v-.4z">
                        </path>
                        <path fill="#28bbef"
                            d="M25.9 153.2l13.7 7.3 35.6 19 1.9 1 1.9 1 9.9 5.3 77.1-44.3-7.1-49.4 1.6 46.3.2 2.6-70.9-40.3L13.3 146l-.4.3z">
                        </path>
                    </svg></svg>
                <defs>
                    <filter id="colors7255407869">
                        <feColorMatrix type="matrix"
                            values="0 0 0 0 0.91015625  0 0 0 0 0.80078125  0 0 0 0 0.69921875  0 0 0 1 0"
                            class="icon-fecolormatrix"></feColorMatrix>
                    </filter>
                    <filter id="colorsf8625044299">
                        <feColorMatrix type="matrix"
                            values="0 0 0 0 0.99609375  0 0 0 0 0.99609375  0 0 0 0 0.99609375  0 0 0 1 0"
                            class="icon-fecolormatrix"></feColorMatrix>
                    </filter>
                    <filter id="colorsb1793015341">
                        <feColorMatrix type="matrix" values="0 0 0 0 0  0 0 0 0 0  0 0 0 0 0  0 0 0 1 0"
                            class="icon-fecolormatrix"></feColorMatrix>
                    </filter>
                </defs>
            </g>
        </g>
    </mask>
</svg>